<svg width="24" height="24" viewBox="0 0 24 24" fill="none" xmlns="http://www.w3.org/2000/svg">
<path d="M10.695 8.937V10.314H9.68701V11.997H10.695V17H12.767V11.997H14.157C14.157 11.997 14.288 11.19 14.351 10.307H12.775V9.157C12.775 8.984 13.001 8.753 13.225 8.753H14.353V7H12.818C10.644 7 10.695 8.685 10.695 8.937Z" fill="#C54380"/>
<path d="M5 3C4.46957 3 3.96086 3.21071 3.58579 3.58579C3.21071 3.96086 3 4.46957 3 5V19C3 19.5304 3.21071 20.0391 3.58579 20.4142C3.96086 20.7893 4.46957 21 5 21H19C19.5304 21 20.0391 20.7893 20.4142 20.4142C20.7893 20.0391 21 19.5304 21 19V5C21 4.46957 20.7893 3.96086 20.4142 3.58579C20.0391 3.21071 19.5304 3 19 3H5ZM5 1H19C20.0609 1 21.0783 1.42143 21.8284 2.17157C22.5786 2.92172 23 3.93913 23 5V19C23 20.0609 22.5786 21.0783 21.8284 21.8284C21.0783 22.5786 20.0609 23 19 23H5C3.93913 23 2.92172 22.5786 2.17157 21.8284C1.42143 21.0783 1 20.0609 1 19V5C1 3.93913 1.42143 2.92172 2.17157 2.17157C2.92172 1.42143 3.93913 1 5 1Z" fill="#C54380"/>
</svg>
