<svg width="140" height="43" viewBox="0 0 140 43" fill="none" xmlns="http://www.w3.org/2000/svg">
<path d="M23.4207 0C20.3314 0 17.6909 1.7955 14.9977 2.82527C12.2252 3.88145 8.95108 4.35673 6.86514 6.25784C4.77919 8.15896 4.2511 11.1426 3.08931 13.6775C1.98033 16.1067 0 18.5359 0 21.3611C0 24.1864 1.98033 26.5892 3.08931 29.0448C4.2511 31.5796 4.77919 34.5633 6.86514 36.4644C8.95108 38.3656 12.2252 38.8672 14.9977 39.897C17.6645 40.9004 20.3314 42.7223 23.4207 42.7223C26.51 42.7223 29.1504 40.9268 31.8437 39.897C34.6161 38.8408 37.8903 38.3656 39.9762 36.4644C42.0622 34.5633 42.5903 31.5796 43.7521 29.0448C44.861 26.6156 46.8414 24.1864 46.8414 21.3611C46.8414 18.5359 44.861 16.1331 43.7521 13.6775C42.5903 11.1426 42.0622 8.15896 39.9762 6.25784C37.8903 4.35673 34.6161 3.85504 31.8437 2.82527C29.1504 1.7955 26.4836 0 23.4207 0Z" fill="#C54380"/>
<path d="M23.4207 1.08264C20.9651 1.08264 18.8263 2.53488 16.6876 3.32701C14.4696 4.17195 11.8556 4.54161 10.1921 6.07307C8.52861 7.60452 8.10614 9.98092 7.18199 12.0141C6.28424 13.968 4.72638 15.9219 4.72638 18.1663C4.72638 20.4106 6.31064 22.3646 7.18199 24.3185C8.10614 26.3516 8.52861 28.728 10.1921 30.2595C11.8556 31.7909 14.4696 32.1606 16.6876 33.0055C18.8263 33.8241 20.9651 35.2499 23.4207 35.2499C25.8763 35.2499 28.015 33.7977 30.1538 33.0055C32.3718 32.1606 34.9858 31.7909 36.6493 30.2595C38.3128 28.728 38.7352 26.3516 39.6594 24.3185C40.5571 22.3646 42.115 20.4106 42.115 18.1663C42.115 15.9219 40.5307 13.968 39.6594 12.0141C38.7352 9.98092 38.3128 7.60452 36.6493 6.07307C34.9858 4.54161 32.3718 4.17195 30.1538 3.32701C28.015 2.50848 25.8763 1.08264 23.4207 1.08264Z" fill="white"/>
<path d="M23.4207 2.13879C21.414 2.13879 19.6977 3.30058 17.955 3.96069C16.1595 4.64721 14.0208 4.96406 12.6741 6.20507C11.3275 7.44607 10.9578 9.37359 10.2185 11.0371C9.50561 12.6213 8.21179 14.2056 8.21179 16.0275C8.21179 17.8494 9.50561 19.4337 10.2185 21.0179C10.9578 22.655 11.3011 24.6089 12.6741 25.8499C14.0208 27.0909 16.1595 27.4078 17.955 28.0943C19.6977 28.7544 21.414 29.9162 23.4207 29.9162C25.4274 29.9162 27.1437 28.7544 28.8864 28.0943C30.6819 27.4078 32.8207 27.0909 34.1673 25.8499C35.5139 24.6089 35.8836 22.6814 36.6229 21.0179C37.3358 19.4337 38.6296 17.8494 38.6296 16.0275C38.6296 14.2056 37.3358 12.6213 36.6229 11.0371C35.8836 9.39999 35.5403 7.44607 34.1673 6.20507C32.7943 4.96406 30.6819 4.64721 28.8864 3.96069C27.1437 3.30058 25.4274 2.13879 23.4207 2.13879Z" fill="#F0C671"/>
<path d="M23.4207 3.19495C22.0477 3.19495 20.8331 4.01348 19.6449 4.46235C18.4039 4.93763 16.9252 5.14887 15.9747 6.02021C15.0241 6.89155 14.7865 8.21178 14.2848 9.34716C13.7831 10.4561 12.8854 11.5387 12.8854 12.8061C12.8854 14.0735 13.7831 15.1561 14.2848 16.2651C14.8129 17.4005 15.0505 18.7471 15.9747 19.5921C16.9252 20.4634 18.3775 20.6746 19.6449 21.1499C20.8595 21.5988 22.0477 22.4173 23.4207 22.4173C24.7938 22.4173 26.0084 21.5988 27.1965 21.1499C28.4376 20.6746 29.9162 20.4634 30.8668 19.5921C31.8173 18.7207 32.055 17.4005 32.5566 16.2651C33.0583 15.1561 33.9561 14.0735 33.9561 12.8061C33.9561 11.5387 33.0583 10.4561 32.5566 9.34716C32.0286 8.21178 31.7909 6.86515 30.8668 6.02021C29.9162 5.14887 28.464 4.93763 27.1965 4.46235C26.0084 4.01348 24.7938 3.19495 23.4207 3.19495Z" fill="white"/>
<path d="M23.4207 4.27747C22.4965 4.27747 21.7044 4.80555 20.8858 5.1224C20.0409 5.43925 19.0639 5.57127 18.4566 6.15217C17.8493 6.73307 17.6645 7.63082 17.3212 8.37014C16.978 9.10947 16.3971 9.82238 16.3971 10.6673C16.3971 11.5123 16.978 12.2516 17.3212 12.9645C17.6645 13.7302 17.8229 14.628 18.4566 15.1825C19.0903 15.7634 20.0673 15.8954 20.8858 16.2122C21.678 16.5291 22.4965 17.0572 23.4207 17.0572C24.3448 17.0572 25.1369 16.5291 25.9555 16.2122C26.8004 15.8954 27.7774 15.7634 28.3847 15.1825C29.0184 14.6016 29.1768 13.7038 29.5201 12.9645C29.8633 12.2252 30.4442 11.5123 30.4442 10.6673C30.4442 9.82238 29.8633 9.08306 29.5201 8.37014C29.1768 7.60442 29.0184 6.70666 28.3847 6.15217C27.751 5.57127 26.774 5.43925 25.9555 5.1224C25.1369 4.80555 24.3448 4.27747 23.4207 4.27747Z" fill="#72C6E6"/>
<path d="M71.1198 13.7677V29.0912H68.658L62.5453 18.775V29.0912H59.8323V13.7677H62.3946L68.4235 24.0001V13.7677H71.1198Z" fill="#183752"/>
<path d="M84.9361 18.708V29.0911H82.357V27.6843C81.6369 28.7896 80.1799 29.3088 78.9072 29.3088C76.1774 29.3088 73.7826 27.1987 73.7826 23.8828C73.7826 20.5501 76.1439 18.4735 78.8737 18.4735C80.1799 18.4735 81.6369 18.9927 82.3403 20.0812V18.708H84.9361ZM82.3235 23.866C82.3235 22.0406 80.8163 20.8851 79.3258 20.8851C77.7181 20.8851 76.4119 22.1243 76.4119 23.866C76.4119 25.6077 77.7181 26.8972 79.3258 26.8972C80.9 26.8972 82.3235 25.6914 82.3235 23.866Z" fill="#183752"/>
<path d="M99.4724 18.6746C99.4724 21.1699 98.0321 23.5982 94.6492 23.5982H91.1491V29.0912H88.4361V13.7677H94.6492C98.0154 13.7677 99.4724 16.2295 99.4724 18.6746ZM96.7594 18.6746C96.7594 17.4688 96.1397 16.1793 94.5823 16.1793H91.1491V21.1364H94.5153C96.1062 21.1531 96.7594 19.9306 96.7594 18.6746Z" fill="#183752"/>
<path d="M108.817 18.8419L108.298 21.287C107.695 20.9688 107.159 20.9018 106.791 20.9018C105.099 20.9018 104.162 22.543 104.162 25.457V29.0911H101.566V18.7079H104.145V20.9353C104.697 19.1936 105.836 18.4902 107.126 18.4902C107.745 18.4902 108.415 18.6075 108.817 18.8419Z" fill="#183752"/>
<path d="M120.758 18.708V29.0911H118.179V27.6843C117.459 28.7896 116.002 29.3088 114.729 29.3088C111.999 29.3088 109.604 27.1987 109.604 23.8828C109.604 20.5501 111.966 18.4735 114.695 18.4735C116.002 18.4735 117.459 18.9927 118.162 20.0812V18.708H120.758ZM118.129 23.866C118.129 22.0406 116.621 20.8851 115.131 20.8851C113.523 20.8851 112.217 22.1243 112.217 23.866C112.217 25.6077 113.523 26.8972 115.131 26.8972C116.705 26.8972 118.129 25.6914 118.129 23.866Z" fill="#183752"/>
<path d="M123.437 15.0404C123.437 14.1361 124.208 13.4662 125.129 13.4662C126.067 13.4662 126.803 14.1361 126.803 15.0404C126.803 15.928 126.067 16.6146 125.129 16.6146C124.208 16.6146 123.437 15.928 123.437 15.0404ZM123.822 18.708H126.402V29.0911H123.822V18.708Z" fill="#183752"/>
<path d="M140 18.708V29.0911H137.421V27.6843C136.701 28.7896 135.244 29.3088 133.971 29.3088C131.241 29.3088 128.847 27.1987 128.847 23.8828C128.847 20.5501 131.208 18.4735 133.938 18.4735C135.244 18.4735 136.701 18.9927 137.404 20.0812V18.708H140ZM137.371 23.866C137.371 22.0406 135.864 20.8851 134.373 20.8851C132.765 20.8851 131.459 22.1243 131.459 23.866C131.459 25.6077 132.765 26.8972 134.373 26.8972C135.947 26.8972 137.371 25.6914 137.371 23.866Z" fill="#183752"/>
</svg>
