<?xml version="1.0" standalone="no"?>
<!DOCTYPE svg PUBLIC "-//W3C//DTD SVG 20010904//EN"
 "http://www.w3.org/TR/2001/REC-SVG-20010904/DTD/svg10.dtd">
<svg version="1.0" xmlns="http://www.w3.org/2000/svg"
 width="752.000000pt" height="752.000000pt" viewBox="0 0 752.000000 752.000000"
 preserveAspectRatio="xMidYMid meet">
<metadata>
Created by potrace 1.14, written by Peter Selinger 2001-2017
</metadata>
<g transform="translate(0.000000,752.000000) scale(0.100000,-0.100000)"
fill="#000000" stroke="none">
<path d="M3618 7195 c-2 -2 -25 -5 -53 -9 -46 -5 -61 -8 -120 -20 -11 -2 -38
-9 -60 -15 -22 -6 -44 -11 -50 -12 -18 -2 -240 -82 -245 -88 -3 -3 -11 -7 -18
-9 -7 -1 -69 -27 -137 -57 -68 -30 -129 -55 -134 -55 -6 0 -11 -3 -11 -7 0 -5
-21 -17 -48 -27 -26 -11 -89 -39 -140 -63 -51 -24 -96 -43 -99 -43 -4 0 -25
-9 -47 -19 -64 -31 -464 -163 -536 -177 -13 -3 -30 -10 -37 -16 -7 -6 -13 -8
-13 -5 0 3 -58 -14 -129 -38 -565 -191 -791 -392 -998 -890 -23 -55 -76 -192
-118 -305 -72 -193 -168 -422 -187 -446 -4 -6 -20 -33 -34 -60 -28 -52 -83
-153 -120 -219 -74 -132 -205 -407 -207 -435 -1 -11 -4 -20 -7 -20 -4 0 -7 -6
-8 -12 0 -7 -10 -44 -21 -82 -11 -37 -23 -87 -27 -110 -8 -53 -13 -298 -6
-311 3 -5 7 -21 8 -35 7 -62 58 -234 95 -315 13 -27 24 -52 24 -55 3 -13 76
-154 86 -166 6 -8 8 -14 4 -14 -4 0 -2 -7 5 -15 7 -9 23 -35 35 -58 12 -23 33
-62 47 -87 66 -116 117 -211 150 -280 36 -74 118 -264 118 -274 0 -3 5 -17 12
-33 6 -15 12 -30 13 -33 1 -3 5 -12 8 -20 3 -8 28 -76 56 -150 76 -208 190
-458 213 -468 4 -2 8 -8 8 -14 0 -39 188 -252 288 -328 56 -42 222 -140 237
-140 8 0 15 -4 15 -10 0 -5 7 -10 15 -10 9 0 33 -9 54 -20 45 -22 90 -40 215
-81 50 -17 95 -33 100 -37 6 -4 16 -7 21 -7 6 0 51 -13 100 -28 50 -16 128
-40 175 -54 47 -14 94 -29 105 -33 11 -5 38 -14 60 -20 22 -6 49 -15 60 -20
26 -11 58 -22 70 -26 24 -6 249 -104 405 -177 99 -45 165 -75 220 -99 48 -21
258 -99 275 -102 6 -1 16 -5 23 -9 6 -5 16 -6 20 -3 5 3 20 -1 35 -9 14 -7 28
-11 30 -9 2 3 16 0 31 -5 14 -6 43 -13 64 -16 20 -2 60 -7 87 -11 71 -9 232
-11 285 -3 25 4 65 10 90 13 101 14 311 74 405 116 11 5 49 21 85 36 36 14 88
37 116 50 28 13 56 24 62 24 7 0 12 5 12 10 0 6 5 10 11 10 6 0 41 14 77 31
118 55 306 137 332 144 14 4 30 11 35 15 6 4 91 33 190 64 340 108 620 200
635 208 8 4 38 17 65 29 180 77 318 165 435 279 44 43 80 81 80 84 0 3 20 32
45 65 60 78 153 258 213 411 27 69 53 134 57 145 4 11 9 25 11 30 3 12 77 207
95 250 7 17 13 35 14 40 7 30 122 271 147 308 11 15 16 27 11 27 -4 0 -3 4 2
8 6 4 19 25 30 47 11 22 22 42 26 45 3 3 16 28 30 55 13 28 27 52 30 55 18 14
193 380 182 380 -3 0 -1 6 4 13 13 15 40 100 48 146 3 19 8 38 11 43 30 49 35
306 8 428 -3 14 -7 36 -10 50 -3 14 -8 34 -11 45 -4 11 -8 25 -9 30 -7 31 -61
170 -90 228 -18 37 -31 67 -28 67 3 0 -3 12 -13 28 -11 15 -34 56 -53 92 -18
36 -62 116 -97 177 -34 62 -63 117 -63 122 0 5 -7 14 -15 21 -8 7 -15 21 -15
31 0 11 -4 19 -10 19 -5 0 -10 4 -10 10 0 5 -17 47 -39 92 -67 145 -81 178
-81 188 0 6 -4 18 -10 28 -8 15 -29 71 -110 292 -16 41 -34 89 -41 105 -7 17
-13 32 -14 35 -5 16 -28 66 -69 151 -187 392 -448 593 -996 767 -186 59 -331
103 -348 107 -9 2 -37 11 -62 20 -25 9 -52 18 -60 20 -8 2 -15 4 -15 5 0 1 -7
3 -15 5 -28 7 -134 47 -162 61 -15 8 -30 14 -33 15 -7 0 -75 29 -270 118 -99
45 -199 91 -222 102 -24 10 -45 19 -48 19 -3 0 -24 9 -48 19 -44 21 -272 101
-285 100 -4 0 -25 5 -47 10 -84 23 -223 39 -336 39 -65 -1 -120 -2 -121 -3z"/>
</g>
</svg>
